<svg height="300px" width="300px" fill="#000000" xmlns="http://www.w3.org/2000/svg" xmlns:xlink="http://www.w3.org/1999/xlink" version="1.1" x="0px" y="0px" viewBox="0 0 100 100" style="enable-background:new 0 0 100 100;" xml:space="preserve"><path d="M94.9,66.2c0-0.4-0.3-0.8-0.8-0.9L92.8,65c-0.1-0.4-0.2-0.7-0.3-1.1l0.9-0.9c0.3-0.3,0.4-0.7,0.2-1.1  c-0.4-0.9-0.9-1.7-1.5-2.5C92,59,91.6,58.8,91.2,59l-1.2,0.4c-0.3-0.3-0.5-0.5-0.8-0.8l0.4-1.2c0.1-0.4,0-0.8-0.4-1.1  c-0.8-0.6-1.7-1.1-2.5-1.5c-0.4-0.2-0.8-0.1-1.1,0.2l-0.9,0.9c-0.4-0.1-0.7-0.2-1.1-0.3l-0.3-1.3c-0.1-0.4-0.4-0.7-0.9-0.8  c-1-0.1-1.9-0.1-2.9,0c-0.4,0-0.8,0.3-0.9,0.8L78,56.2c-0.1,0.5,0.2,1.1,0.7,1.2c0.5,0.1,1.1-0.2,1.2-0.7l0.3-1.2c0.4,0,0.8,0,1.1,0  l0.3,1.2c0.1,0.4,0.4,0.7,0.8,0.7c0.7,0.1,1.3,0.3,2,0.5c0.4,0.1,0.8,0,1.1-0.2l0.9-0.9c0.3,0.2,0.7,0.4,1,0.6L87,58.6  c-0.1,0.4,0,0.8,0.3,1c0.5,0.4,1,0.9,1.5,1.5c0.3,0.3,0.7,0.4,1,0.3l1.2-0.3c0.2,0.3,0.4,0.6,0.6,1l-0.9,0.9  c-0.3,0.3-0.4,0.7-0.2,1.1c0.2,0.6,0.4,1.3,0.5,2c0.1,0.4,0.4,0.7,0.7,0.8l1.2,0.3c0,0.2,0,0.4,0,0.6s0,0.4,0,0.6l-1.2,0.3  c-0.4,0.1-0.7,0.4-0.7,0.8c-0.1,0.7-0.3,1.3-0.5,2c-0.1,0.4,0,0.8,0.2,1.1l0.9,0.9c-0.2,0.3-0.4,0.7-0.6,1l-1.2-0.3  c-0.4-0.1-0.8,0-1,0.3c-0.4,0.5-0.9,1-1.5,1.5c-0.3,0.3-0.4,0.7-0.3,1l0.3,1.2c-0.3,0.2-0.6,0.4-1,0.6l-0.9-0.9  c-0.3-0.3-0.7-0.4-1.1-0.2c-0.6,0.2-1.3,0.4-2,0.5c-0.4,0.1-0.7,0.4-0.8,0.7l-0.3,1.2c-0.4,0-0.7,0-1.1,0l-0.3-1.2  c-0.1-0.4-0.4-0.7-0.8-0.7c-0.7-0.1-1.4-0.3-2-0.5c-0.4-0.1-0.8,0-1.1,0.2l-0.9,0.9c-0.3-0.2-0.7-0.4-1-0.6l0.3-1.2  c0.1-0.4,0-0.8-0.3-1c-0.5-0.4-1-0.9-1.5-1.5c-0.3-0.3-0.7-0.4-1-0.3l-1.2,0.3c-0.2-0.3-0.4-0.6-0.6-1l0.9-0.9  c0.3-0.3,0.4-0.7,0.2-1.1c-0.2-0.6-0.4-1.3-0.5-2c-0.1-0.4-0.4-0.7-0.7-0.8l-1.2-0.3c0-0.2,0-0.4,0-0.6s0-0.4,0-0.6l1.2-0.3  c0.4-0.1,0.7-0.4,0.7-0.8c0.1-0.7,0.3-1.3,0.5-2c0.1-0.4,0-0.8-0.2-1.1L70,62.1c0.2-0.3,0.4-0.7,0.6-1l1.2,0.3  c0.5,0.1,1.1-0.2,1.2-0.7c0.2-0.5-0.2-1.1-0.7-1.2L70.4,59c-0.4-0.1-0.8,0-1.1,0.4c-0.6,0.8-1.1,1.7-1.5,2.5  c-0.2,0.4-0.1,0.8,0.2,1.1l0.9,0.9c-0.1,0.4-0.2,0.7-0.3,1.1l-1.3,0.3c-0.4,0.1-0.7,0.4-0.8,0.9c0,0.5-0.1,1-0.1,1.5  c0,0.5,0,1,0.1,1.5c0,0.4,0.3,0.8,0.8,0.9l1.3,0.3c0.1,0.4,0.2,0.7,0.3,1.1l-0.9,0.9c-0.3,0.3-0.4,0.7-0.2,1.1  c0.4,0.9,0.9,1.7,1.5,2.5c0.2,0.3,0.7,0.5,1.1,0.4l1.2-0.4c0.3,0.3,0.5,0.5,0.8,0.8L72.1,78c-0.1,0.4,0,0.8,0.4,1.1  c0.8,0.6,1.7,1.1,2.5,1.5c0.4,0.2,0.8,0.1,1.1-0.2l0.9-0.9c0.4,0.1,0.7,0.2,1.1,0.3l0.3,1.3c0.1,0.4,0.5,0.7,0.9,0.8  c0.5,0,1,0.1,1.5,0.1s1,0,1.5-0.1c0.4,0,0.8-0.3,0.9-0.8l0.3-1.3c0.4-0.1,0.7-0.2,1.1-0.3l0.9,0.9c0.3,0.3,0.7,0.4,1.1,0.2  c0.9-0.4,1.7-0.9,2.5-1.5c0.3-0.2,0.5-0.7,0.4-1.1l-0.4-1.2c0.3-0.3,0.5-0.5,0.8-0.8l1.2,0.4c0.4,0.1,0.8,0,1.1-0.4  c0.6-0.8,1.1-1.7,1.5-2.5c0.2-0.4,0.1-0.8-0.2-1.1l-0.9-0.9c0.1-0.4,0.2-0.7,0.3-1.1l1.3-0.3c0.4-0.1,0.7-0.4,0.8-0.9  c0-0.5,0.1-1,0.1-1.5C94.9,67.2,94.9,66.7,94.9,66.2z"/><path d="M33.4,67.3c-0.1-0.5-0.5-0.9-1.1-0.9c-0.5,0.1-0.9,0.5-0.9,1c0,0.1,0,0.1,0,0.2c0,0.2,0,0.4,0,0.6l-1.2,0.3  c-0.4,0.1-0.7,0.4-0.7,0.8c-0.1,0.7-0.3,1.3-0.5,2c-0.1,0.4,0,0.8,0.2,1.1l0.9,0.9c-0.2,0.3-0.4,0.7-0.6,1l-1.2-0.3  c-0.4-0.1-0.8,0-1,0.3c-0.4,0.5-0.9,1-1.5,1.5c-0.3,0.3-0.4,0.7-0.3,1l0.3,1.2c-0.3,0.2-0.6,0.4-1,0.6L24,77.6  c-0.3-0.3-0.7-0.4-1.1-0.2c-0.6,0.2-1.3,0.4-2,0.5c-0.4,0.1-0.7,0.4-0.8,0.7l-0.3,1.2c-0.4,0-0.7,0-1.1,0l-0.3-1.2  c-0.1-0.4-0.4-0.7-0.8-0.7c-0.7-0.1-1.4-0.3-2-0.5c-0.4-0.1-0.8,0-1.1,0.2l-0.9,0.9c-0.3-0.2-0.7-0.4-1-0.6l0.3-1.2  c0.1-0.4,0-0.8-0.3-1c-0.5-0.4-1-0.9-1.5-1.5c-0.3-0.3-0.7-0.4-1-0.3L9,74.2c-0.2-0.3-0.4-0.6-0.6-1l0.9-0.9  c0.3-0.3,0.4-0.7,0.2-1.1c-0.2-0.6-0.4-1.3-0.5-2c-0.1-0.4-0.4-0.7-0.7-0.8l-1.2-0.3c0-0.2,0-0.4,0-0.6s0-0.4,0-0.6l1.2-0.3  C8.7,66.7,9,66.4,9,66c0.1-0.7,0.3-1.3,0.5-2c0.1-0.4,0-0.8-0.2-1.1l-0.9-0.9c0.2-0.3,0.4-0.7,0.6-1l1.2,0.3c0.4,0.1,0.8,0,1-0.3  c0.4-0.5,0.9-1,1.5-1.5c0.3-0.3,0.4-0.7,0.3-1l-0.3-1.2c0.3-0.2,0.6-0.4,1-0.6l0.9,0.9c0.3,0.3,0.7,0.4,1.1,0.2  c0.6-0.2,1.3-0.4,2-0.5c0.4-0.1,0.7-0.4,0.8-0.7l0.3-1.2c0.4,0,0.8,0,1.1,0l0.3,1.2c0.1,0.4,0.4,0.7,0.8,0.7c0.7,0.1,1.3,0.3,2,0.5  c0.4,0.1,0.8,0,1.1-0.2l0.9-0.9c0.3,0.2,0.7,0.4,1,0.6l-0.3,1.2c-0.1,0.4,0,0.8,0.3,1c0.5,0.4,1,0.9,1.5,1.5c0.3,0.3,0.7,0.4,1,0.3  l1.9-0.5c0.5-0.2,0.8-0.7,0.7-1.2c-0.2-0.5-0.7-0.8-1.2-0.7l-1.2,0.4c-0.3-0.3-0.5-0.5-0.8-0.8l0.4-1.2c0.1-0.4,0-0.8-0.4-1.1  c-0.8-0.6-1.7-1.1-2.5-1.5c-0.4-0.2-0.8-0.1-1.1,0.2L23,55.9c-0.4-0.1-0.7-0.2-1.1-0.3l-0.3-1.3c-0.1-0.4-0.4-0.7-0.9-0.8  c-1-0.1-1.9-0.1-2.9,0c-0.4,0-0.8,0.3-0.9,0.8l-0.3,1.3c-0.4,0.1-0.7,0.2-1.1,0.3l-0.9-0.9c-0.3-0.3-0.7-0.4-1.1-0.2  c-0.9,0.4-1.7,0.9-2.5,1.5c-0.3,0.2-0.5,0.7-0.4,1.1l0.4,1.2c-0.3,0.3-0.5,0.5-0.8,0.8L8.8,59c-0.4-0.1-0.8,0-1.1,0.4  c-0.6,0.8-1.1,1.7-1.5,2.5c-0.2,0.4-0.1,0.8,0.2,1.1l0.9,0.9c-0.1,0.4-0.2,0.7-0.3,1.1l-1.3,0.3c-0.4,0.1-0.7,0.4-0.8,0.9  c0,0.5-0.1,1-0.1,1.5c0,0.5,0,1,0.1,1.5c0,0.4,0.3,0.8,0.8,0.9l1.3,0.3c0.1,0.4,0.2,0.7,0.3,1.1l-0.9,0.9c-0.3,0.3-0.4,0.7-0.2,1.1  c0.4,0.9,0.9,1.7,1.5,2.5c0.2,0.3,0.7,0.5,1.1,0.4l1.2-0.4c0.3,0.3,0.5,0.5,0.8,0.8L10.5,78c-0.1,0.4,0,0.8,0.4,1.1  c0.8,0.6,1.7,1.1,2.5,1.5c0.4,0.2,0.8,0.1,1.1-0.2l0.9-0.9c0.4,0.1,0.7,0.2,1.1,0.3l0.3,1.3c0.1,0.4,0.5,0.7,0.9,0.8  c0.5,0,1,0.1,1.5,0.1s1,0,1.5-0.1c0.4,0,0.8-0.3,0.9-0.8l0.3-1.3c0.4-0.1,0.7-0.2,1.1-0.3l0.9,0.9c0.3,0.3,0.7,0.4,1.1,0.2  c0.9-0.4,1.7-0.9,2.5-1.5c0.3-0.2,0.5-0.7,0.4-1.1l-0.4-1.2c0.3-0.3,0.5-0.5,0.8-0.8l1.2,0.4c0.4,0.1,0.8,0,1.1-0.4  c0.6-0.8,1.1-1.7,1.5-2.5c0.2-0.4,0.1-0.8-0.2-1.1L31,71.4c0.1-0.4,0.2-0.7,0.3-1.1l1.3-0.3c0.4-0.1,0.7-0.4,0.8-0.9  c0-0.4,0.1-0.8,0.1-1.3c0-0.1,0-0.2,0-0.3C33.4,67.5,33.4,67.4,33.4,67.3L33.4,67.3z M31.4,67.7L31.4,67.7c0,0,0,0.1,0,0.1  C31.4,67.7,31.4,67.7,31.4,67.7z"/><path d="M76.6,62.6c0.2,0.3,0.5,0.5,0.9,0.5c0.2,0,0.3,0,0.5-0.1c0.5-0.3,0.7-0.9,0.4-1.3l-7.4-14.4c0.1,0,0.1-0.1,0.2-0.1  c6.6-2.6,13.7,0,13.7,0c0.5,0.2,1.1-0.1,1.3-0.6c0.2-0.5-0.1-1.1-0.6-1.3c-0.3-0.1-7.9-2.9-15.2,0c-0.1,0-0.2,0.1-0.4,0.2L68.2,42  c0.2-0.1,0.3-0.1,0.5-0.2c10.9-3.5,21.4,1.3,21.5,1.3c0.5,0.2,1.1,0,1.3-0.5c0.2-0.5,0-1.1-0.5-1.3c-0.5-0.2-11.4-5.2-23-1.4  c-0.3,0.1-0.5,0.2-0.8,0.3l-6.7-13c-0.3-0.5-0.9-0.7-1.3-0.4c-0.5,0.3-0.7,0.9-0.4,1.3l3.6,7c-2.5,0.9-4.2,1.9-5.4,2.8V36  c0-0.3-0.2-0.6-0.4-0.8c-0.3-0.2-0.6-0.2-0.9-0.1l-17.5,7.2l-14.6-4.7c-0.1,0-0.2,0-0.3,0c-0.1,0-8.9-0.4-11.2-0.6  c-0.4,0-0.8,0.1-1,0.4l-1.2,1.9c-0.2,0.3-0.2,0.6-0.1,0.9c0.1,0.3,0.3,0.5,0.6,0.6c0.2,0.1,5.8,2.1,8.4,2.6l1.7,1l2,3.6  c0.1,0.1,0.2,0.2,0.3,0.3l5.6,3.9c0.2,0.1,0.4,0.2,0.6,0.2l2.4-0.2c3.2,4.9,4.1,5.1,4.5,5.2c0.1,0,0.1,0,0.2,0c0.5,0,2-0.3,7.1-2.6  c0.5-0.2,0.7-0.8,0.5-1.3s-0.8-0.7-1.3-0.5c-2.4,1.1-5.3,2.3-6,2.4c-0.6-0.5-2.3-2.8-3.5-4.8c-0.2-0.3-0.5-0.5-0.9-0.5l-2.6,0.2  l-5.2-3.6l-2-3.6c-0.1-0.2-0.2-0.3-0.4-0.4l-2.1-1.2c-0.1-0.1-0.2-0.1-0.3-0.1c-1.6-0.3-5.2-1.5-7-2.1l0.2-0.3  c2.8,0.3,9.5,0.5,10.6,0.6l14.9,4.7c0.2,0.1,0.5,0.1,0.7,0l16.5-6.8v3.1c0,0.5,0.3,0.8,0.7,1c0.4,0.1,0.9-0.1,1.1-0.5  c0,0,1.4-2.3,6.4-4l2.1,4.1c-5.1,2.7-9.8,7.9-10,8.1c-0.4,0.4-0.3,1,0.1,1.4c0.2,0.2,0.4,0.3,0.7,0.3c0.3,0,0.5-0.1,0.7-0.3  c0.1-0.1,4.7-5.1,9.4-7.7l1.8,3.5c-5.9,3.2-8.8,8.8-11.2,13.4c-0.4,0.7-0.8,1.4-1.1,2.1c-2.9,5.2-5.5,5.8-8.4,6  c-1.2,0.1-4.7-1.6-6.9-2.8c-0.5-0.3-1.1-0.1-1.4,0.4c-0.3,0.5-0.1,1.1,0.4,1.4c0.9,0.5,5.4,3.1,7.8,3.1c0.1,0,0.1,0,0.2,0  c3.2-0.2,6.6-0.9,10-7c0.4-0.7,0.8-1.4,1.1-2.2c2.3-4.3,5-9.5,10.3-12.5L76.6,62.6z"/><path d="M67.9,35.2c0.2,0.3,0.5,0.5,0.9,0.5c0.2,0,0.3,0,0.5-0.1c0.5-0.3,0.7-0.9,0.4-1.3l-3.6-7c-0.3-0.5-0.9-0.7-1.3-0.4  c-0.5,0.3-0.7,0.9-0.4,1.3L67.9,35.2z"/><path d="M47.1,23.1l8-2.7l1.8,3.7c0.2,0.4,0.5,0.6,0.9,0.6c0.1,0,0.3,0,0.4-0.1c0.5-0.2,0.7-0.8,0.5-1.3l-2.1-4.5  c-0.2-0.5-0.7-0.7-1.2-0.5l-8.8,3c-0.5,0.2-0.8,0.7-0.6,1.3C46,23,46.6,23.3,47.1,23.1z"/><path d="M24.4,65.9c0.1,0.4,0.5,0.7,0.9,0.7c0.1,0,0.2,0,0.3-0.1l20.1-7c0.5-0.2,0.8-0.8,0.6-1.3c-0.2-0.5-0.7-0.8-1.3-0.6l-20.1,7  C24.5,64.8,24.2,65.3,24.4,65.9z"/><ellipse transform="matrix(0.7071 -0.7071 0.7071 0.7071 -42.1963 33.4092)" cx="19.2" cy="67.6" rx="2" ry="2"/><ellipse transform="matrix(0.7071 -0.7071 0.7071 0.7071 -24.1719 76.9241)" cx="80.8" cy="67.6" rx="2" ry="2"/></svg>